<svg width="1280" height="40" viewBox="0 0 1280 40" fill="none" xmlns="http://www.w3.org/2000/svg">
<path d="M142.222 23.8235C94.8148 2.2549 47.4074 2.2549 0 23.8235V0H1280V23.8235C1232.59 2.2549 1185.19 2.2549 1137.78 23.8235C1090.37 45.3922 1042.96 45.3922 995.556 23.8235C948.148 2.2549 900.741 2.2549 853.333 23.8235C805.926 45.3922 758.519 45.3922 711.111 23.8235C663.704 2.2549 616.296 2.2549 568.889 23.8235C521.482 45.3922 474.074 45.3922 426.667 23.8235C379.259 2.2549 331.852 2.2549 284.444 23.8235C237.037 45.3922 189.63 45.3922 142.222 23.8235Z" fill="#2BB7B3"/>
</svg>
