<svg width="1280" height="40" viewBox="0 0 1280 40" fill="none" xmlns="http://www.w3.org/2000/svg">
<path d="M142.222 16.1765C94.8148 37.7451 47.4074 37.7451 0 16.1765V40H1280V16.1765C1232.59 37.7451 1185.19 37.7451 1137.78 16.1765C1090.37 -5.39216 1042.96 -5.39216 995.556 16.1765C948.148 37.7451 900.741 37.7451 853.333 16.1765C805.926 -5.39216 758.519 -5.39216 711.111 16.1765C663.704 37.7451 616.296 37.7451 568.889 16.1765C521.482 -5.39216 474.074 -5.39216 426.667 16.1765C379.259 37.7451 331.852 37.7451 284.444 16.1765C237.037 -5.39216 189.63 -5.39216 142.222 16.1765Z" fill="#2BB7B3"/>
</svg>
